<svg height="512pt" viewBox="-132 0 512 512" width="512pt" xmlns="http://www.w3.org/2000/svg"><path d="m130.414062 512h-13.800781c-31.558593 0-60.714843-11.011719-82.085937-31-22.265625-20.828125-34.527344-50.15625-34.527344-82.589844l.285156-287.71875c.164063-64.1875 37.738282-110.691406 89.375-110.691406h.214844l5.609375.0195312c26.285156.0664063 49.765625 12.2578128 66.097656 34.3320308 14.859375 20.082032 23 47.351563 22.925781 76.785157l-.679687 271.058593c-.046875 17.585938-5.433594 34.105469-15.175781 46.515626-10.714844 13.652343-25.609375 21.164062-41.957032 21.164062-.042968 0-.089843 0-.132812 0-16.035156-.042969-31.855469-7.558594-43.414062-20.628906-11.40625-12.894532-17.660157-29.710938-17.617188-47.347656l.542969-216.652344c.023437-8.429688 6.863281-15.246094 15.289062-15.246094h.039063c8.441406.019531 15.269531 6.882812 15.246094 15.324219l-.542969 216.652343c-.023438 10.140626 3.507812 19.734376 9.945312 27.015626 5.777344 6.53125 13.28125 10.289062 20.585938 10.304687h.054687c8.660156 0 14.519532-5.140625 17.910156-9.460937 5.550782-7.074219 8.621094-16.917969 8.648438-27.71875l.683594-271.054688c.054687-22.90625-5.957032-43.691406-16.929688-58.523438-7.386718-9.980468-20.601562-21.890624-41.613281-21.941406l-5.605469-.023437c-.046875 0-.09375 0-.140625 0-20.917969 0-34.144531 11.8125-41.5625 21.734375-11.046875 14.777344-17.164062 35.53125-17.21875 58.4375l-.289062 287.679687c0 48.085938 36.1875 83 86.039062 83h13.800781c49.855469 0 86.035157-34.914062 86.035157-83.015625v-239.984375c0-8.441406 6.847656-15.289062 15.289062-15.289062 8.441407 0 15.289063 6.847656 15.289063 15.289062v239.984375c0 32.433594-12.261719 61.761719-34.519532 82.589844-21.375 19.988281-50.527343 31-82.09375 31zm0 0"/></svg>