<?xml version="1.0"?>
<svg xmlns="http://www.w3.org/2000/svg" viewBox="0 0 64 64" width="512" height="512"><g id="outline"><path d="M55,5a3,3,0,0,0-3-3H12A3,3,0,0,0,9,5V6H5V62H50.414L59,53.414V6H55ZM52,4a1,1,0,0,1,1,1V6H51V5a2.966,2.966,0,0,0-.184-1ZM47,4h1a1,1,0,0,1,1,1V6H47V5a2.966,2.966,0,0,0-.184-1ZM43,4h1a1,1,0,0,1,1,1V6H43V5a2.966,2.966,0,0,0-.184-1ZM39,4h1a1,1,0,0,1,1,1V6H39V5a2.966,2.966,0,0,0-.184-1ZM35,4h1a1,1,0,0,1,1,1V6H35V5a2.966,2.966,0,0,0-.184-1ZM31,4h1a1,1,0,0,1,1,1V6H31V5a2.966,2.966,0,0,0-.184-1ZM27,4h1a1,1,0,0,1,1,1V6H27V5a2.966,2.966,0,0,0-.184-1ZM23,4h1a1,1,0,0,1,1,1V6H23V5a2.966,2.966,0,0,0-.184-1ZM19,4h1a1,1,0,0,1,1,1V6H19V5a2.966,2.966,0,0,0-.184-1ZM15,4h1a1,1,0,0,1,1,1V6H15V5a2.991,2.991,0,0,0-.176-1ZM11,5a1,1,0,0,1,2,0V6H11ZM51,58.586V54h4.586ZM57,52H50a1,1,0,0,0-1,1v7H7V14H57ZM57,8v4H7V8H9v2h2V8h2v2h2V8h2v2h2V8h2v2h2V8h2v2h2V8h2v2h2V8h2v2h2V8h2v2h2V8h2v2h2V8h2v2h2V8h2v2h2V8h2v2h2V8Z"/><circle cx="12" cy="18" r="2"/><circle cx="22" cy="18" r="2"/><circle cx="32" cy="18" r="2"/><circle cx="42" cy="18" r="2"/><circle cx="52" cy="18" r="2"/><path d="M13,24v8a1,1,0,0,0,2,0V29h3v3a1,1,0,0,0,2,0V24a1,1,0,0,0-2,0v3H15V24a1,1,0,0,0-2,0Z"/><path d="M22,24v8a1,1,0,0,0,1,1h5a1,1,0,0,0,1-1V24a1,1,0,0,0-1-1H23A1,1,0,0,0,22,24Zm2,1h3v6H24Z"/><path d="M32,23a1,1,0,0,0-1,1v8a1,1,0,0,0,2,0V25h.323l1.748,4.371a1,1,0,0,0,1.858,0L38.677,25H39v7a1,1,0,0,0,2,0V24a1,1,0,0,0-1-1H38a1,1,0,0,0-.929.629L36,26.308l-1.071-2.679A1,1,0,0,0,34,23Z"/><path d="M31,45a1,1,0,0,0,1-1V36a1,1,0,0,0-1-1H26a1,1,0,0,0-1,1v8a1,1,0,0,0,1,1Zm-4-8h3v6H27Z"/><path d="M15.933,45a1.014,1.014,0,0,0,1-.627L18,41.692l1.071,2.679A1,1,0,0,0,20,45l.067,0a1,1,0,0,0,.9-.756l2-8a1,1,0,1,0-1.94-.484l-1.25,5-.851-2.128a1,1,0,0,0-1.858,0l-.851,2.128-1.25-5a1,1,0,0,0-1.94.484l2,8A1,1,0,0,0,15.933,45Z"/><path d="M43,24v8a1,1,0,0,0,1,1h5a1,1,0,0,0,0-2H45V29h4a1,1,0,0,0,1-1V24a1,1,0,0,0-1-1H44A1,1,0,0,0,43,24Zm2,1h3v2H45Z"/><path d="M41,40V36a1,1,0,0,0-1-1H35a1,1,0,0,0-1,1v8a1,1,0,0,0,2,0V41.667L38.2,44.6a1,1,0,0,0,.8.4h2a1,1,0,0,0,0-2H39.5L38,41h2A1,1,0,0,0,41,40Zm-2-1H36V37h3Z"/><path d="M44,35a1,1,0,0,0-1,1v8a1,1,0,0,0,2,0V42.081l3.375,2.7a1,1,0,1,0,1.25-1.562L45.6,40l4.024-3.219a1,1,0,1,0-1.25-1.562L45,37.919V36A1,1,0,0,0,44,35Z"/><path d="M52,47a236.81,236.81,0,0,0-40.2,4.02A1,1,0,0,0,12,53a.955.955,0,0,0,.2-.02A234.772,234.772,0,0,1,52,49a1,1,0,0,0,0-2Z"/></g></svg>
