<?xml version="1.0" encoding="utf-8"?>
<!-- Generator: Adobe Illustrator 23.0.0, SVG Export Plug-In . SVG Version: 6.00 Build 0)  -->
<svg version="1.1" id="Layer_1" xmlns="http://www.w3.org/2000/svg" xmlns:xlink="http://www.w3.org/1999/xlink" x="0px" y="0px"
	 viewBox="0 0 492 492" style="enable-background:new 0 0 492 492;" xml:space="preserve">
<g>
	<g>
		<path d="M0,204.7c0,7.2,2.8,14,7.9,19.1l177.7,177.7c5.1,5.1,11.8,7.9,19,7.9c7.2,0,14-2.8,19-7.8l16.1-16.1
			c5.1-5.1,7.9-11.7,7.9-18.9c0-7.2-2.8-13.8-7.9-18.9L134.9,243.1l330.5,0c14.8,0,26.6-12.8,26.6-27.6v-22.8
			c0-14.9-11.7-26.5-26.6-26.5l-329.3,0L239.8,62.3c5.1-5.1,7.9-12.1,7.9-19.3c0-7.2-2.8-14-7.9-19L223.6,7.9
			c-5.1-5.1-11.8-7.9-19-7.9c-7.2,0-14,2.8-19,7.9L7.9,185.5C2.8,190.6,0,197.4,0,204.7z"/>
	</g>
</g>
</svg>
