<?xml version="1.0" encoding="utf-8"?>
<!-- Generator: Adobe Illustrator 23.0.0, SVG Export Plug-In . SVG Version: 6.00 Build 0)  -->
<svg version="1.1" id="Capa_1" xmlns="http://www.w3.org/2000/svg" xmlns:xlink="http://www.w3.org/1999/xlink" x="0px" y="0px"
	 viewBox="0 0 512 512" style="enable-background:new 0 0 512 512;" xml:space="preserve">
<style type="text/css">
	.st0{fill:#FFFFFF;}
</style>
<g>
	<g>
		<circle className="st0" cx="257" cy="256" r="39"/>
	</g>
</g>
<g>
	<g>
		<path className="st0" d="M257,142c-62.9,0-114,51.1-114,114s51.1,114,114,114s114-51.1,114-114S319.9,142,257,142z M257,330
			c-40.8,0-74-33.2-74-74s33.2-74,74-74s74,33.2,74,74C331,296.8,297.8,330,257,330z"/>
	</g>
</g>
<g>
	<g>
		<path className="st0" d="M499,212.3c-10.6-16.3-40.6-58.2-89.4-94.6c-49.4-37-101-55.7-153.2-55.7c-52.2,0-103.8,18.7-153.4,55.6
			c-49,36.4-79.2,78.2-89.9,94.5c-17.6,26.7-17.6,61.2,0,87.9c10.7,16.3,40.9,58.1,89.9,94.5c49.6,36.9,101.2,55.6,153.4,55.6
			c80.3,0,144.9-44.8,185-82.4c8.1-7.6,8.5-20.2,0.9-28.3c-7.6-8.1-20.2-8.5-28.3-0.9c-34.8,32.6-90.3,71.5-157.6,71.5
			c-97.1,0-177.6-83-209.9-132c-8.8-13.3-8.8-30.6,0-43.9c32.3-49,112.8-132,209.9-132c97.1,0,177.1,83.1,209.1,132.2
			c8.6,13.3,8.6,30.4,0,43.7c-6,9.3-3.4,21.6,5.8,27.7c9.3,6,21.6,3.4,27.7-5.8C516.3,273.1,516.3,238.9,499,212.3z"/>
	</g>
</g>
</svg>
