<svg xmlns="http://www.w3.org/2000/svg" viewBox="0 0 549.64 690"><defs><style>.cls-1{fill:#fed100;}.cls-2{fill:#97512c;}.cls-3{fill:#7c3e25;}.cls-4{fill:#ffdb31;}.cls-5{fill:#ffdf5a;}.cls-6{fill:#8d492b;}.cls-7{fill:#fcc200;}.cls-8{fill:#fff3c0;}.cls-9{fill:#d69a13;}</style></defs><title>champion</title><g id="Layer_2" data-name="Layer 2"><g id="Icon"><path className="cls-1" d="M274.82,491.09a174.23,174.23,0,0,0-90.66,25.28V525H365.48v-8.6A174.23,174.23,0,0,0,274.82,491.09Z"/><rect className="cls-2" x="160.15" y="524.97" width="229.33" height="143.34"/><rect className="cls-3" x="144.32" y="668.31" width="261.01" height="21.69"/><path className="cls-1" d="M292.94,350.29a52,52,0,0,1-36.23,0l0-.07c0-10.61-5.09-21.67-15.28-29.43l-.19-.1a236.66,236.66,0,0,1-82.55-96.57h0A526.93,526.93,0,0,1,109,0H440.63a526.93,526.93,0,0,1-49.69,224.13h0a236.69,236.69,0,0,1-82.56,96.57l-.18.1c-10.19,7.76-15.28,18.82-15.28,29.43Z"/><path className="cls-1" d="M290.24,351.21a32.11,32.11,0,0,0,11.42,24.57h0A12.2,12.2,0,0,1,293.41,397H256.23A12.19,12.19,0,0,1,248,375.78h0a32.11,32.11,0,0,0,11.42-24.57Z"/><path className="cls-4" d="M305.72,501.5a109.71,109.71,0,0,1-61.79,0l.08-.29V481a151.11,151.11,0,0,0,11.91-59,152.49,152.49,0,0,0-2.1-25.26h42A152.35,152.35,0,0,0,305.63,481v20.23Z"/><path className="cls-1" d="M157.68,316.6a35.4,35.4,0,0,1-23-8.52,12.35,12.35,0,1,1,16.09-18.75,10.51,10.51,0,0,0,6.94,2.56,10.68,10.68,0,0,0,10.39-13.15,35.75,35.75,0,0,0-9.23-15.64,18.62,18.62,0,0,1-2.62-2.48L48.1,159.16C12.28,125.55-14,72.91,8.11,31.1A57.43,57.43,0,0,1,56.44.86c.29,0,.6,0,.9,0h1q.43,0,.87,0A55.78,55.78,0,0,1,98.41,94.34,12.35,12.35,0,0,1,80.22,77.62,31.07,31.07,0,0,0,57.83,25.54,32.44,32.44,0,0,0,30,42.64C14,72.78,37,114.83,65,141.15L173.47,242.94c.31.28.57.55.79.79s.56.46.83.71a60.56,60.56,0,0,1,16.83,27.86,2.45,2.45,0,0,1,.08.29,35.41,35.41,0,0,1-34.32,44Zm-1.16-55.69.06,0Zm10.14-19.82h0Zm0,0Z"/><path className="cls-1" d="M356.58,281.22a35.72,35.72,0,0,1,1.06-8.63c0-.1.05-.2.08-.29a60.49,60.49,0,0,1,16.84-27.86c.26-.25.54-.48.82-.71s.48-.51.79-.79L484.63,141.15c28-26.32,51-68.37,35.06-98.51a32.44,32.44,0,0,0-27.88-17.1,31.07,31.07,0,0,0-22.39,52.08,12.35,12.35,0,0,1-18.19,16.72A55.78,55.78,0,0,1,490.46.86q.42,0,.87,0h1q.46,0,.9,0A57.43,57.43,0,0,1,541.53,31.1c22.09,41.81-4.17,94.45-40,128.06L393.43,260.62a18.62,18.62,0,0,1-2.62,2.48,35.67,35.67,0,0,0-9.24,15.64A10.72,10.72,0,0,0,392,291.89a10.51,10.51,0,0,0,6.94-2.56A12.35,12.35,0,0,1,415,308.08a35.38,35.38,0,0,1-58.41-26.86ZM393.07,261l.05,0ZM383,241.09Zm0,0Z"/><path className="cls-5" d="M179.41,15.09H123.28a428.31,428.31,0,0,0,31.48,161.68A238.72,238.72,0,0,1,179.41,15.09Z"/><path className="cls-6" d="M160.15,668.31H389.49V525S312.84,668.31,160.15,668.31Z"/><rect className="cls-1" x="191.2" y="558.05" width="167.25" height="81.9"/><path className="cls-5" d="M17.48,47.43A61,61,0,0,1,68.82,15.31c.31,0,.63,0,1,0h1c.31,0,.62,0,.93,0a59,59,0,0,1,18.47,3.61A49.81,49.81,0,0,0,58,5.65c-.25,0-.52,0-.78,0h-.87q-.41,0-.81,0A51.46,51.46,0,0,0,12.23,32.73C3.15,49.92,3.2,69.15,9,87.84A76.23,76.23,0,0,1,17.48,47.43Z"/><path className="cls-7" d="M193.07,277.66a236.82,236.82,0,0,0,48.2,43l.19.1c10.19,7.76,15.28,18.82,15.28,29.43l0,.07a52,52,0,0,0,36.23,0l0-.07c0-10.61,5.09-21.67,15.28-29.43l.18-.1a236.69,236.69,0,0,0,82.56-96.57h0A526.93,526.93,0,0,0,440.63,0C367.36,290.25,193.87,277.66,193.07,277.66Z"/><circle className="cls-8" cx="274.82" cy="158.71" r="77.28" transform="translate(74.14 404.56) rotate(-80.78)"/><path className="cls-9" d="M267.56,216.62V123.83H250.63v-20.6h39.92V216.62Z"/></g></g></svg>